<svg xmlns="http://www.w3.org/2000/svg" viewBox="0 0 128 128" role="img" aria-labelledby="title desc">
  <title id="title">Abstract coral blob logo</title>
  <desc id="desc">A glowing coral organic shape on a soft charcoal square background.</desc>
  <defs>
    <radialGradient id="bg" cx="50%" cy="46%" r="70%">
      <stop offset="0%" stop-color="#7b7676"/>
      <stop offset="100%" stop-color="#5f5a5a"/>
    </radialGradient>
    <radialGradient id="blobFill" cx="42%" cy="36%" r="78%">
      <stop offset="0%" stop-color="#FFA9A0"/>
      <stop offset="100%" stop-color="#F76F5C"/>
    </radialGradient>
    <filter id="glow" x="-50%" y="-50%" width="200%" height="200%">
      <feGaussianBlur stdDeviation="10" result="blur"/>
      <feColorMatrix
        in="blur"
        type="matrix"
        values="1 0 0 0 0
                0 1 0 0 0
                0 0 1 0 0
                0 0 0 0.55 0"
        result="softGlow"
      />
      <feMerge>
        <feMergeNode in="softGlow"/>
        <feMergeNode in="SourceGraphic"/>
      </feMerge>
    </filter>
  </defs>
  <rect width="128" height="128" rx="8" fill="url(#bg)"/>
  <path
    d="M54 22
       C71 22 86 32 92 46
       C96 56 104 58 108 68
       C113 80 109 95 99 104
       C90 112 76 112 65 116
       C52 121 40 119 31 111
       C20 101 18 85 20 72
       C22 58 31 49 36 38
       C41 28 45 22 54 22Z"
    fill="url(#blobFill)"
    stroke="#F76F5C"
    stroke-width="0.9"
    filter="url(#glow)"
  />
</svg>
