<svg xmlns="http://www.w3.org/2000/svg" viewBox="0 0 128 128">
  <defs>
    <radialGradient id="blobFill" cx="42%" cy="36%" r="78%">
      <stop offset="0%" stop-color="#FFA9A0" />
      <stop offset="100%" stop-color="#F76F5C" />
    </radialGradient>
    <filter id="glow" x="-45%" y="-45%" width="190%" height="190%">
      <feGaussianBlur stdDeviation="8" result="blur" />
      <feColorMatrix
        in="blur"
        type="matrix"
        values="1 0 0 0 0
                0 1 0 0 0
                0 0 1 0 0
                0 0 0 0.5 0"
        result="softGlow"
      />
      <feMerge>
        <feMergeNode in="softGlow" />
        <feMergeNode in="SourceGraphic" />
      </feMerge>
    </filter>
  </defs>
  <rect width="128" height="128" rx="14" fill="#FFFFFF" />
  <g transform="translate(64 64) scale(1.08) translate(-64 -64)">
    <path
      d="M54 22
         C71 22 86 32 92 46
         C96 56 104 58 108 68
         C113 80 109 95 99 104
         C90 112 76 112 65 116
         C52 121 40 119 31 111
         C20 101 18 85 20 72
         C22 58 31 49 36 38
         C41 28 45 22 54 22Z"
      fill="url(#blobFill)"
      stroke="#F76F5C"
      stroke-width="0.9"
      filter="url(#glow)"
    />
  </g>
</svg>
